<svg xmlns="http://www.w3.org/2000/svg" version="1.1" xmlns:xlink="http://www.w3.org/1999/xlink" xmlns:svgjs="http://svgjs.dev/svgjs" width="1000" height="161" viewBox="0 0 1000 161"><g transform="matrix(1,0,0,1,-0.6060605940547248,-0.04285235285530575)"><svg viewBox="0 0 396 64" data-background-color="#ffffff" preserveAspectRatio="xMidYMid meet" height="161" width="1000" xmlns="http://www.w3.org/2000/svg" xmlns:xlink="http://www.w3.org/1999/xlink"><g id="tight-bounds" transform="matrix(1,0,0,1,0.2400000047543358,0.017034475669191806)"><svg viewBox="0 0 395.52 63.96592861464004" height="63.96592861464004" width="395.52"><g><svg viewBox="0 0 395.52 63.96592861464004" height="63.96592861464004" width="395.52"><g><svg viewBox="0 0 395.52 63.96592861464004" height="63.96592861464004" width="395.52"><g id="textblocktransform"><svg viewBox="0 0 395.52 63.96592861464004" height="63.96592861464004" width="395.52" id="textblock"><g><svg viewBox="0 0 395.52 63.96592861464004" height="63.96592861464004" width="395.52"><g transform="matrix(1,0,0,1,0,0)"><svg width="395.52" viewBox="0.4000000059604645 -35 247.9300079345703 40.099998474121094" height="63.96592861464004" data-palette-color="#233565"><path d="M23.95 0L19.3 0 17.25-8.75 6.95-8.75 4.9 0 0.4 0 9.35-34.45 15-34.45 23.95 0ZM12.1-30.65L7.8-12.4 16.4-12.4 12.1-30.65ZM44.1-1.95Q48.65-1.8 52.35 1.55L52.35 1.55 49.3 5.1Q47.05 2.45 44.72 1.45 42.4 0.45 38.55 0.45L38.55 0.45Q33.1 0.45 29.85-4 26.6-8.45 26.6-17.15L26.6-17.15Q26.6-26 29.85-30.5 33.1-35 38.75-35L38.75-35Q44.4-35 47.62-30.55 50.85-26.1 50.85-17.2L50.85-17.2Q50.85-10.9 49.12-7.4 47.4-3.9 44.1-1.95L44.1-1.95ZM31.4-17.15Q31.4-9.65 33.3-6.4 35.2-3.15 38.75-3.15L38.75-3.15Q42.35-3.15 44.2-6.38 46.05-9.6 46.05-17.2L46.05-17.2Q46.05-24.75 44.2-28.03 42.35-31.3 38.75-31.3L38.75-31.3Q35.15-31.3 33.27-28 31.4-24.7 31.4-17.15L31.4-17.15ZM76.69-34.45L76.69-9.25Q76.69-6.5 75.52-4.25 74.34-2 72.05-0.7 69.75 0.6 66.55 0.6L66.55 0.6Q61.7 0.6 59.05-2.18 56.39-4.95 56.39-9.25L56.39-9.25 56.39-34.45 60.95-34.45 60.95-9.6Q60.95-3.25 66.55-3.25L66.55-3.25Q72.14-3.25 72.14-9.6L72.14-9.6 72.14-34.45 76.69-34.45ZM103.94 0L99.29 0 97.24-8.75 86.94-8.75 84.89 0 80.39 0 89.34-34.45 94.99-34.45 103.94 0ZM92.09-30.65L87.79-12.4 96.39-12.4 92.09-30.65ZM115.64-35Q118.39-35 120.52-34.02 122.64-33.05 124.44-31.05L124.44-31.05 122.04-28.45Q120.49-29.95 118.99-30.63 117.49-31.3 115.69-31.3L115.69-31.3Q113.54-31.3 112.22-29.93 110.89-28.55 110.89-26.3L110.89-26.3Q110.89-24.1 112.17-22.7 113.44-21.3 116.99-19.95L116.99-19.95Q121.09-18.4 123.19-16.1 125.29-13.8 125.29-9.55L125.29-9.55Q125.29-6.8 124.02-4.48 122.74-2.15 120.39-0.78 118.04 0.6 114.94 0.6L114.94 0.6Q111.84 0.6 109.44-0.55 107.04-1.7 105.09-3.85L105.09-3.85 107.54-6.45Q109.29-4.85 111.02-4 112.74-3.15 114.84-3.15L114.84-3.15Q117.44-3.15 118.99-4.85 120.54-6.55 120.54-9.45L120.54-9.45Q120.54-11.95 119.29-13.45 118.04-14.95 114.64-16.2L114.64-16.2Q110.29-17.85 108.27-20.2 106.24-22.55 106.24-26.1L106.24-26.1Q106.24-28.55 107.44-30.6 108.64-32.65 110.79-33.83 112.94-35 115.64-35L115.64-35ZM127.39-34.45L147.94-34.45 147.44-30.65 139.79-30.65 139.79 0 135.24 0 135.24-30.65 127.39-30.65 127.39-34.45ZM172.44 0L167.44 0 160.74-14.75Q160.39-14.7 159.69-14.7L159.69-14.7 156.59-14.7 156.59 0 152.04 0 152.04-34.45 158.94-34.45Q164.99-34.45 167.94-31.95 170.89-29.45 170.89-24.75L170.89-24.75Q170.89-21.45 169.34-19.07 167.79-16.7 164.89-15.6L164.89-15.6 172.44 0ZM159.29-18.2Q162.89-18.2 164.49-19.78 166.09-21.35 166.09-24.75L166.09-24.75Q166.09-27.9 164.44-29.38 162.79-30.85 158.89-30.85L158.89-30.85 156.59-30.85 156.59-18.2 159.29-18.2ZM197.28 0L192.63 0 190.58-8.75 180.28-8.75 178.23 0 173.73 0 182.68-34.45 188.33-34.45 197.28 0ZM185.43-30.65L181.13-12.4 189.73-12.4 185.43-30.65ZM207.93-34.45Q212.13-34.45 215.21-33.13 218.28-31.8 220.21-28.03 222.13-24.25 222.13-17.4L222.13-17.4Q222.13-7.65 218.33-3.83 214.53 0 208.68 0L208.68 0 201.48 0 201.48-34.45 207.93-34.45ZM208.78-30.8L206.03-30.8 206.03-3.6 208.98-3.6Q211.48-3.6 213.31-4.7 215.13-5.8 216.25-8.83 217.38-11.85 217.38-17.4L217.38-17.4Q217.38-23.05 216.21-25.98 215.03-28.9 213.21-29.85 211.38-30.8 208.78-30.8L208.78-30.8ZM248.33 0L243.68 0 241.63-8.75 231.33-8.75 229.28 0 224.78 0 233.73-34.45 239.38-34.45 248.33 0ZM236.48-30.65L232.18-12.4 240.78-12.4 236.48-30.65Z" opacity="1" transform="matrix(1,0,0,1,0,0)" fill="#233565" class="wordmark-text-0" data-fill-palette-color="primary" id="text-0"></path></svg></g></svg></g></svg></g></svg></g></svg></g><defs></defs></svg><rect width="395.52" height="63.96592861464004" fill="none" stroke="none" visibility="hidden"></rect></g></svg></g></svg>